<svg width="12" height="14" viewBox="0 0 12 14" fill="none" xmlns="http://www.w3.org/2000/svg">
<path d="M0.0799999 7.38C0.127594 7.50275 0.19896 7.61489 0.290001 7.71L5.29 12.71C5.38324 12.8032 5.49393 12.8772 5.61575 12.9277C5.73757 12.9781 5.86814 13.0041 6 13.0041C6.2663 13.0041 6.5217 12.8983 6.71 12.71C6.80324 12.6168 6.8772 12.5061 6.92766 12.3842C6.97812 12.2624 7.00409 12.1319 7.00409 12C7.00409 11.7337 6.8983 11.4783 6.71 11.29L3.41 8H11C11.2652 8 11.5196 7.89464 11.7071 7.7071C11.8946 7.51957 12 7.26521 12 7C12 6.73478 11.8946 6.48043 11.7071 6.29289C11.5196 6.10535 11.2652 6 11 6H3.41L6.71 2.71C6.80373 2.61703 6.87812 2.50643 6.92889 2.38457C6.97966 2.26272 7.0058 2.13201 7.0058 2C7.0058 1.86799 6.97966 1.73728 6.92889 1.61542C6.87812 1.49356 6.80373 1.38296 6.71 1.29C6.61704 1.19627 6.50644 1.12187 6.38458 1.07111C6.26272 1.02034 6.13201 0.9942 6 0.9942C5.86799 0.9942 5.73728 1.02034 5.61542 1.07111C5.49356 1.12187 5.38296 1.19627 5.29 1.29L0.290001 6.29C0.19896 6.3851 0.127594 6.49725 0.0799999 6.62C-0.0200181 6.86346 -0.0200181 7.13654 0.0799999 7.38Z" fill="#1C69D4"/>
</svg>
